PathFileType  4	(X/Y/Z) C:\Users\antoi\Documents\MyRepositories\mobilecap\ResultsAnalysis
DataRate	CameraRate	NumFrames	NumMarkers	Units	OrigDataRate	OrigDataStartFrame	OrigNumFrames
100.0	100.0	7	51	mm	100.0	204	271
Frame#	Time	r_knee			r_shank_antsup			r_ankle			r_calc			r_5meta			r_toe			L_knee			L_shank_antsup			L_ankle			L_calc			L_5meta			L_toe			r_sh2			r_sh3			r_sh4			L_sh2			L_sh3			r_thigh1			r_thigh2			r_thigh3			r_thigh4			r_thigh5			L_thigh1			L_thigh2			L_thigh3			L_thigh4			r.ASIS			r.PSIS			L.ASIS			L.PSIS			C7			R_Shoulder			L_Shoulder			R_Sternum			L_Sternum			R_humerus			R_elbow_med			R_elbow_lat			R_forearm			R_wrist_radius			R_wrist_ulna			L_humerus			L_elbow_med			L_elbow_lat			L_forearm			L_wrist_radius			L_wrist_ulna			R_HJC			L_HJC			R_HJC_reg			L_HJC_reg			
		X1	Y1	Z1	X2	Y2	Z2	X3	Y3	Z3	X4	Y4	Z4	X5	Y5	Z5	X6	Y6	Z6	X7	Y7	Z7	X8	Y8	Z8	X9	Y9	Z9	X10	Y10	Z10	X11	Y11	Z11	X12	Y12	Z12	X13	Y13	Z13	X14	Y14	Z14	X15	Y15	Z15	X16	Y16	Z16	X17	Y17	Z17	X18	Y18	Z18	X19	Y19	Z19	X20	Y20	Z20	X21	Y21	Z21	X22	Y22	Z22	X23	Y23	Z23	X24	Y24	Z24	X25	Y25	Z25	X26	Y26	Z26	X27	Y27	Z27	X28	Y28	Z28	X29	Y29	Z29	X30	Y30	Z30	X31	Y31	Z31	X32	Y32	Z32	X33	Y33	Z33	X34	Y34	Z34	X35	Y35	Z35	X36	Y36	Z36	X37	Y37	Z37	X38	Y38	Z38	X39	Y39	Z39	X40	Y40	Z40	X41	Y41	Z41	X42	Y42	Z42	X43	Y43	Z43	X44	Y44	Z44	X45	Y45	Z45	X46	Y46	Z46	X47	Y47	Z47	X48	Y48	Z48	X49	Y49	Z49	X50	Y50	Z50	X51	Y51	Z51	

204	2.03000000	-66.51199	423.03991	-438.67617	-34.83471	348.01223	-437.91416	-265.84169	111.62447	-440.05099	-329.73680	87.92109	-485.24861	-181.80055	45.99191	-398.82580	-132.42334	53.68872	-448.39056	-32.53051	414.38315	-774.13086	-20.44208	318.05158	-761.83833	-240.79308	114.52936	-803.48263	-313.79207	83.44247	-764.03071	-161.00972	47.74241	-840.15858	-106.80318	53.26122	-788.41984	-104.19946	259.15862	-426.18766	-86.79925	398.25148	-406.00473	-167.41448	308.79679	-402.40273	-71.26057	374.93465	-808.96910	-139.53562	275.00054	-830.88171	-204.42591	627.35357	-418.39381	-120.34131	552.49932	-419.29404	-192.60191	471.19188	-454.54445	-280.93320	549.08483	-444.33842	-150.45519	488.48963	-424.93982	-192.77290	634.32529	-816.19238	-94.22433	541.30538	-792.88683	-275.94597	558.02315	-807.05139	-176.40239	464.02393	-769.98849	-210.32810	739.11179	-520.78524	-388.60665	838.58382	-600.77545	-206.11095	728.57222	-731.98658	-386.78783	831.27732	-682.62956	-42.01885	1134.25244	-650.28978	10.25074	1080.48088	-509.18626	9.59447	1068.10681	-781.06004	51.15465	1032.39708	-618.08323	46.18492	1024.20384	-650.64387	28.31058	986.66092	-439.52711	-19.48323	769.19748	-384.83331	16.94489	804.98994	-337.64454	112.10317	791.90889	-363.81952	227.26845	739.33679	-415.57447	224.60723	707.62321	-392.16734	28.55761	975.74277	-848.00947	19.60739	739.67541	-855.78516	52.04649	775.27859	-906.58638	156.02462	749.48375	-868.93601	253.05124	711.85305	-804.72194	247.01705	673.01945	-816.92338	-317.65778	687.80830	-522.57417	-310.98112	677.71381	-729.72886	-298.92313	706.87830	-548.57174	-295.83507	694.46984	-687.57859	
205	2.04000000	-69.45743	424.91050	-438.38713	-37.42977	349.88620	-437.93697	-265.74820	111.57381	-440.79197	-329.56616	87.85087	-485.72592	-181.86236	46.06546	-398.98811	-132.40484	53.53980	-448.43006	-33.74667	416.66258	-772.63288	-21.30191	320.54424	-760.94085	-240.38278	115.22786	-802.64483	-313.26722	84.45958	-763.39581	-160.89552	47.98713	-839.96253	-106.65183	53.14801	-788.17323	-105.73512	260.71313	-425.66876	-89.48085	400.04172	-405.48878	-169.41923	309.65665	-402.08714	-72.51424	377.04803	-807.71893	-140.21333	276.70664	-829.84762	-204.67239	630.66737	-418.09614	-121.75499	555.10115	-418.03993	-195.04674	475.28396	-454.82173	-282.18426	554.30888	-445.17361	-152.84754	491.60489	-424.80070	-191.33341	638.40060	-815.74584	-93.85317	544.31734	-792.12439	-275.38005	563.41055	-805.96590	-176.98087	468.24523	-768.83633	-209.96975	748.03878	-519.18705	-389.31346	844.35324	-600.92764	-204.83498	737.50095	-731.68576	-387.35092	836.79092	-682.72648	-49.18773	1148.08399	-651.17719	6.43301	1098.38127	-511.33486	7.02166	1085.62963	-779.50233	46.22173	1047.55302	-619.18495	42.36966	1040.99686	-650.27971	35.55646	1010.94860	-442.08793	14.43876	791.42726	-379.92805	48.69841	832.62759	-335.22475	143.12444	834.48831	-367.47180	261.08733	802.26280	-427.57048	265.20209	770.09208	-404.74981	37.74008	998.05717	-845.03501	55.99836	762.81085	-855.25652	86.20653	803.09968	-904.87251	189.95145	794.52587	-860.25649	287.26996	775.47935	-789.59776	288.64657	736.02003	-800.32507	-316.35879	694.89497	-522.12554	-308.61902	684.67623	-729.23659	-297.89765	714.43441	-547.10317	-294.54286	701.50841	-686.92981	
206	2.05000000	-73.12002	427.14851	-438.00535	-40.51998	352.75791	-436.62565	-265.70025	111.50922	-441.06824	-329.46142	87.86549	-485.95174	-181.89798	46.03196	-399.00717	-132.41389	53.42889	-448.38121	-35.75005	419.38619	-771.50587	-22.73958	323.33598	-760.38490	-240.01115	116.06296	-802.47469	-312.73464	85.55117	-763.17489	-160.77924	48.10821	-839.89448	-106.51035	53.01209	-788.06621	-107.80844	262.54980	-425.06287	-92.74597	402.39567	-404.56452	-171.96871	310.49165	-401.81321	-74.46875	379.42411	-806.99676	-141.25316	278.46065	-829.15627	-204.90945	635.38603	-417.02108	-123.65665	558.07227	-417.23151	-198.00038	480.18413	-455.00669	-283.60858	560.86339	-445.59274	-155.69949	495.54088	-424.55517	-189.99939	643.33616	-815.39209	-93.73030	547.76151	-791.52915	-275.10224	569.68650	-804.92259	-178.13623	473.10036	-767.83843	-209.73385	757.68405	-517.10673	-389.42232	851.47011	-600.98476	-203.37607	747.06913	-731.65062	-387.17415	843.52997	-682.83506	-55.92636	1162.51338	-651.90784	2.61709	1118.78040	-513.99679	5.19724	1104.56258	-777.43987	41.66414	1064.00433	-619.25245	38.72761	1057.91188	-650.00524	42.87127	1037.71743	-445.38652	47.53181	820.12469	-375.80894	79.36910	866.41492	-333.24579	170.12216	882.46253	-371.56117	286.75739	870.01609	-439.75722	297.44278	838.54607	-417.98309	46.78883	1023.01623	-841.52692	90.68691	791.85454	-856.43275	118.63630	837.26719	-903.18267	218.90719	845.30536	-852.60377	312.77155	844.25764	-775.34523	321.48154	805.49721	-784.90490	-315.20035	703.04346	-521.62397	-306.23498	692.70214	-728.67915	-297.19133	722.97827	-545.40259	-293.31455	709.28909	-686.52137	
207	2.06000000	-77.34258	430.08409	-437.41265	-44.20080	356.42589	-434.88034	-265.77822	111.46778	-440.92250	-329.35336	88.10098	-485.87648	-181.88824	45.82085	-398.89992	-132.38855	53.34927	-448.23274	-38.37752	422.60283	-771.11634	-24.69913	326.59490	-760.09637	-239.61496	117.01250	-802.84404	-312.07262	86.79077	-763.44488	-160.60156	48.10940	-839.91788	-106.32322	52.84783	-788.12728	-110.29896	264.96855	-424.11994	-96.93077	405.21320	-403.57823	-175.60399	311.81705	-401.62746	-76.99773	382.26673	-806.86774	-142.63104	280.52411	-829.00627	-205.17550	641.49643	-415.66079	-125.94662	561.87474	-416.46227	-201.44276	486.10977	-454.81352	-285.10683	568.91657	-445.77327	-158.92444	500.52762	-424.26354	-188.73928	649.38313	-815.44032	-93.98700	551.86260	-791.30029	-275.00973	577.09245	-803.90889	-179.77859	478.78536	-766.87800	-209.24313	768.00619	-515.22320	-388.84316	859.95474	-601.18795	-201.60537	757.20051	-731.36167	-386.25930	851.50179	-682.88656	-62.18777	1177.58120	-652.50352	-0.99989	1141.44390	-517.51400	3.90160	1125.10835	-774.82350	38.04156	1081.39567	-619.35116	35.34804	1074.60196	-650.17859	49.68523	1067.00875	-449.39860	79.30973	854.86670	-372.61787	107.81669	905.91565	-332.05009	192.34703	934.78067	-376.14883	303.96117	940.85989	-451.92570	320.81899	911.13246	-431.54020	54.95186	1050.48760	-837.88740	122.93965	826.57329	-858.89596	148.29315	877.27210	-901.75650	242.34754	900.49596	-845.76560	329.29744	916.05327	-762.58124	344.98259	879.39363	-771.24045	-313.95074	712.29565	-521.07462	-303.73854	701.68743	-728.05861	-296.33137	732.77651	-543.86282	-291.83738	718.07287	-685.95095	
208	2.07000000	-82.16791	433.85551	-436.58481	-48.62677	360.74322	-433.48799	-265.77159	111.64434	-440.59944	-329.07726	88.69749	-485.65015	-181.82907	45.55851	-398.74068	-132.28924	53.26132	-448.04804	-41.45849	426.27660	-771.14419	-27.14728	330.46573	-760.18440	-239.17244	117.90592	-803.37733	-311.38279	88.21443	-763.96659	-160.33572	48.00987	-839.99177	-106.07006	52.63716	-788.32124	-113.16865	268.04350	-423.11151	-102.32415	408.49589	-402.50412	-179.54634	313.62382	-401.22927	-80.11063	385.60962	-807.09014	-144.44593	283.09604	-829.42520	-205.16319	648.83450	-414.58555	-128.21809	567.16118	-415.00660	-205.30244	493.37871	-454.25706	-286.59580	578.57292	-445.89880	-162.54753	506.77505	-423.88053	-187.23587	656.40980	-815.48421	-94.54662	556.84036	-791.42842	-274.93931	585.98436	-803.11316	-181.84001	485.53281	-766.24616	-208.10498	779.19345	-513.94702	-387.72232	869.76083	-601.52406	-199.44258	768.18310	-730.78684	-384.78320	860.83342	-682.93299	-67.86965	1193.49636	-653.16348	-3.85808	1164.90482	-522.00141	2.91644	1146.92066	-771.65018	35.19264	1099.46501	-619.78486	32.56482	1092.03312	-650.24261	55.47687	1098.55598	-454.18070	108.97076	894.83706	-370.03248	133.15855	950.57716	-331.79484	209.48195	990.34226	-381.19384	312.92379	1012.80405	-464.10285	335.31450	985.81973	-445.16509	61.66425	1080.42454	-834.17898	152.80457	866.55793	-860.94622	174.23729	921.82688	-900.42735	259.63429	958.79336	-839.68806	337.24286	989.12680	-752.24807	359.29315	955.74535	-760.15778	-312.29180	722.71174	-520.60187	-301.01204	711.78062	-727.51377	-294.92510	743.75733	-542.84447	-289.78234	728.13368	-685.31048	
209	2.08000000	-87.84523	438.55041	-435.55716	-53.91371	365.98294	-432.07121	-265.47433	112.16269	-440.21115	-328.54776	89.72390	-485.47598	-181.73811	45.38739	-398.60376	-132.09921	53.15245	-447.90608	-45.15420	430.61567	-771.20748	-30.16986	335.04862	-760.58638	-238.59892	118.77762	-803.86563	-310.69183	89.91689	-764.40364	-160.02257	47.88960	-840.12577	-105.76380	52.40719	-788.56987	-116.57534	271.86019	-422.20847	-108.10654	413.13617	-400.57519	-183.65178	316.02659	-400.46491	-83.93957	389.51479	-807.66280	-146.79383	286.11000	-830.03421	-204.75429	657.49572	-413.76378	-130.57814	573.90129	-413.07763	-209.62160	502.09120	-453.73005	-288.17870	590.00812	-445.79756	-166.75781	514.52934	-423.21143	-185.31508	664.52313	-815.21115	-95.27109	562.77804	-791.71187	-274.76483	596.58661	-802.68206	-184.30423	493.51622	-766.18667	-206.23694	791.65704	-513.28109	-386.23334	880.90240	-601.82789	-196.84982	780.41289	-730.15178	-382.81073	871.71416	-683.14058	-72.89349	1210.52057	-653.95195	-5.95653	1188.91346	-527.32281	2.22841	1169.99234	-767.87248	33.03469	1118.60726	-620.10153	30.50128	1111.06714	-649.95449	60.11797	1132.06967	-459.43196	135.24483	939.32721	-367.98712	154.70764	999.53134	-332.54314	221.44641	1047.99618	-386.65870	314.47352	1083.96422	-476.17677	341.37630	1060.64926	-458.53876	67.02222	1112.61042	-830.22323	179.83987	910.92476	-861.74723	195.77930	969.75746	-899.14862	270.83387	1018.80009	-834.83170	337.43698	1061.74866	-744.53738	364.97018	1032.40546	-751.40122	-310.05334	734.47500	-520.29086	-297.93164	723.24747	-727.14015	-292.91041	755.76330	-542.53869	-286.91681	739.66982	-684.96729	
210	2.09000000	-94.61109	444.40039	-434.29491	-60.28487	372.31664	-430.37138	-264.93880	113.01832	-439.71483	-327.78017	91.19193	-485.42179	-181.60517	45.28761	-398.54862	-131.80717	52.99451	-447.73139	-49.69333	435.96260	-771.53526	-33.87100	340.59424	-761.33802	-237.78691	119.87400	-804.34230	-309.81789	91.98047	-764.67875	-159.67130	47.86545	-840.35318	-105.41810	52.18097	-788.80927	-120.74795	276.65770	-421.05124	-114.15180	419.26201	-398.40426	-189.08398	319.55091	-399.67557	-88.59707	394.10677	-808.72040	-149.66979	289.48672	-830.54743	-204.38172	667.78524	-412.79477	-133.45342	581.76048	-411.40743	-214.64943	512.40525	-453.04708	-290.04859	603.21714	-445.40155	-171.66606	523.88226	-422.13814	-183.13495	674.24095	-814.81391	-96.17837	569.74945	-792.02804	-274.41361	608.91101	-802.53025	-187.18714	502.87278	-766.64469	-203.80967	805.83780	-513.01708	-384.39103	893.42362	-602.05263	-193.74431	793.97485	-729.45462	-380.35841	884.04416	-683.40366	-77.35292	1228.94710	-654.62593	-7.98706	1214.33832	-533.14429	1.70911	1194.81259	-763.40924	31.55059	1139.20117	-620.53376	28.85064	1131.67985	-649.97031	63.53230	1167.40061	-464.69144	157.11903	987.51108	-366.51068	171.86359	1051.32189	-334.44547	228.18977	1106.31373	-392.70684	309.64252	1152.72947	-487.93530	339.92378	1133.74561	-471.42015	71.08230	1146.60478	-826.08943	202.84838	958.52000	-862.24791	212.55648	1020.37019	-898.36215	276.60121	1079.07382	-831.40992	331.11692	1132.04203	-738.95481	362.97196	1107.18825	-744.17795	-307.18157	747.83392	-519.92841	-294.38985	736.07693	-726.70826	-290.30550	769.07532	-542.69039	-283.26113	752.69099	-684.79250	
